<?xml version="1.0" standalone="no"?>
<!DOCTYPE svg PUBLIC "-//W3C//DTD SVG 20010904//EN"
 "http://www.w3.org/TR/2001/REC-SVG-20010904/DTD/svg10.dtd">
<svg version="1.0" xmlns="http://www.w3.org/2000/svg"
 width="1067.000000pt" height="1067.000000pt" viewBox="0 0 1067.000000 1067.000000"
 preserveAspectRatio="xMidYMid meet">
<metadata>
Created by potrace 1.11, written by Peter Selinger 2001-2013
</metadata>
<g transform="translate(0.000000,1067.000000) scale(0.100000,-0.100000)"
fill="#000000" stroke="none">
<path d="M1330 10370 c-398 -54 -713 -222 -973 -519 -143 -164 -284 -450 -325
-661 -6 -30 -15 -71 -19 -90 -4 -19 -8 -1698 -10 -3730 -2 -3187 0 -3707 12
-3785 39 -236 114 -431 240 -620 150 -223 364 -408 606 -522 70 -33 234 -92
278 -99 14 -3 42 -9 61 -14 19 -5 64 -13 100 -17 89 -11 8000 -10 8075 1 609
87 1101 530 1250 1124 13 53 28 124 32 157 10 79 10 7412 0 7490 -13 96 -55
252 -94 349 -195 482 -623 833 -1123 921 -19 4 -48 9 -65 13 -42 9 -7978 11
-8045 2z"/>
</g>
</svg>
